PathFileType	4	(X/Y/Z)	 s11c0001.trc
DataRate	CameraRate	NumFrames	NumMarkers	Units	OrigDataRate	OrigDataStartFrame	OrigNumFrames
200	200	5	49	mm	200	1501	2000
Frame#	Time	racr			lacr			c7			jug			rlel			rdr			llel			ldr			s2			lic			ric			lasi			rasi			rpsi			lpsi			rgt			lgt			rth1			rth2			rth3			rth4			rlfc			rmfc			rsh1			rsh2			rsh3			rsh4			rlmal			rmmal			rcal			rtoe			rmt5			rmt1			lth1			lth2			lth4			lth3			llfc			lmfc			llmal			lmmal			lcal			lmt1			lmt5			lsh1			lsh2			lsh3			lsh4			ltoe			
		X1	Y1	Z1	X2	Y2	Z2	X3	Y3	Z3	X4	Y4	Z4	X5	Y5	Z5	X6	Y6	Z6	X7	Y7	Z7	X8	Y8	Z8	X9	Y9	Z9	X10	Y10	Z10	X11	Y11	Z11	X12	Y12	Z12	X13	Y13	Z13	X14	Y14	Z14	X15	Y15	Z15	X16	Y16	Z16	X17	Y17	Z17	X18	Y18	Z18	X19	Y19	Z19	X20	Y20	Z20	X21	Y21	Z21	X22	Y22	Z22	X23	Y23	Z23	X24	Y24	Z24	X25	Y25	Z25	X26	Y26	Z26	X27	Y27	Z27	X28	Y28	Z28	X29	Y29	Z29	X30	Y30	Z30	X31	Y31	Z31	X32	Y32	Z32	X33	Y33	Z33	X34	Y34	Z34	X35	Y35	Z35	X36	Y36	Z36	X37	Y37	Z37	X38	Y38	Z38	X39	Y39	Z39	X40	Y40	Z40	X41	Y41	Z41	X42	Y42	Z42	X43	Y43	Z43	X44	Y44	Z44	X45	Y45	Z45	X46	Y46	Z46	X47	Y47	Z47	X48	Y48	Z48	X49	Y49	Z49	
1501	7.5050	483.645045	1571.896247	590.899097	452.102975	1596.017342	177.975532	387.253469	1620.082770	384.570039	550.716894	1560.805206	366.334478	484.807195	1313.342489	741.193070	614.999563	1086.611608	886.858979	422.160505	1300.625995	48.815909	544.888522	1061.594736	-129.878739	340.551683	1075.233387	392.925768	508.594787	1162.838435	174.978459	553.098970	1151.990826	566.063538	576.092551	1109.412348	204.208947	608.996341	1112.182918	520.328769	362.273451	1130.125551	447.475325	348.847001	1126.942250	344.839771	506.570388	960.976906	588.236018	442.126699	991.877028	173.766749	516.598591	833.597127	585.303144	536.935879	750.652924	559.841640	513.099928	668.698467	541.532832	570.813839	753.540909	547.379037	508.807187	563.111060	516.346963	503.316726	545.692238	396.629381	463.254435	413.845506	538.735041	478.360172	327.525837	524.836295	448.490548	244.923042	524.663927	504.501866	327.210940	495.734206	431.510952	108.612353	513.412091	463.357488	122.718529	425.918135	386.756218	80.276050	459.302418	667.387454	91.351916	518.977100	590.810606	54.183151	573.912710	609.827785	58.607167	458.461346	471.571598	858.968613	153.721283	491.124754	776.906798	168.492428	527.505545	775.627444	174.171403	465.196732	692.280879	182.800236	460.412646	550.338943	212.849036	474.457701	540.299212	338.985221	405.846188	117.413306	223.486366	436.715506	133.630240	297.662516	369.125840	68.586037	259.907945	592.870944	56.118848	292.008777	569.959517	55.339096	174.973924	423.309768	427.268003	191.990005	441.874053	343.453064	199.114428	416.245697	258.864291	202.748535	473.704024	343.965673	221.467430	660.191653	95.607104	243.993098	
1502	7.5100	483.641484	1571.894394	590.889305	452.093307	1595.997288	177.979501	387.252717	1620.101595	384.571068	550.700534	1560.794824	366.324562	484.813606	1313.327277	741.183752	614.988940	1086.598409	886.857030	422.172057	1300.585993	48.837709	544.911971	1061.536522	-129.815941	340.531730	1075.226110	392.960810	508.597821	1162.822490	174.974920	553.072869	1151.992917	566.075221	576.090834	1109.410798	204.217022	608.994377	1112.189099	520.323252	362.242722	1130.154509	447.519352	348.844340	1126.890952	344.867504	506.550670	960.976363	588.236807	442.100162	991.871768	173.776206	516.606566	833.589870	585.318470	536.921658	750.657432	559.852878	513.098781	668.692969	541.541405	570.812333	753.556655	547.378252	508.772337	563.105967	516.332610	503.313909	545.690589	396.645390	463.260688	413.854738	538.728537	478.314593	327.516239	524.823010	448.481901	244.922409	524.683169	504.494783	327.233284	495.736054	431.513239	108.611042	513.411662	463.357611	122.703001	425.921083	386.755110	80.295378	459.316583	667.379968	91.374056	518.972721	590.818088	54.159369	573.880687	609.839442	58.601770	458.462967	471.565227	858.978935	153.740068	491.112010	776.897069	168.521975	527.477775	775.629651	174.179960	465.182040	692.277867	182.804878	460.414273	550.353965	212.843549	474.438700	540.305363	338.984968	405.846417	117.413994	223.486365	436.720552	133.612149	297.651534	369.124076	68.582994	259.910114	592.875840	56.120405	292.009778	569.961048	55.348434	174.962840	423.299768	427.267095	192.001556	441.872395	343.448536	199.114324	416.242094	258.867227	202.768889	473.690013	343.972425	221.458175	660.196812	95.577882	243.966347	
1503	7.5150	483.629629	1571.896129	590.897261	452.072536	1596.008105	177.960296	387.253471	1620.098225	384.567944	550.692983	1560.787161	366.321277	484.780492	1313.317724	741.158573	614.978839	1086.590126	886.850042	422.183923	1300.554760	48.856345	544.937967	1061.483034	-129.748218	340.522377	1075.169897	392.937205	508.568749	1162.816282	174.965250	553.093756	1152.000117	566.106811	576.055210	1109.417655	204.221684	608.981859	1112.197818	520.341599	362.248429	1130.144327	447.490378	348.805082	1126.888255	344.892472	506.550448	960.984301	588.252820	442.097280	991.866094	173.781191	516.585014	833.594184	585.318469	536.911608	750.658270	559.855839	513.095980	668.696428	541.551731	570.774303	753.553524	547.388587	508.746683	563.098712	516.332154	503.314776	545.691212	396.644316	463.252764	413.849408	538.736248	478.280140	327.503270	524.813602	448.470702	244.917735	524.673923	504.483949	327.196828	495.745863	431.522189	108.609282	513.419634	463.369727	122.694276	425.909532	386.758574	80.275229	459.299433	667.370460	91.358322	518.984487	590.809666	54.179427	573.884765	609.835458	58.606697	458.466210	471.557526	858.971174	153.751435	491.081938	776.915766	168.464235	527.462208	775.639933	174.176999	465.148476	692.274950	182.817879	460.406499	550.336860	212.856719	474.445826	540.291706	338.983634	405.833784	117.425477	223.482240	436.720942	133.612562	297.651055	369.129950	68.569121	259.903315	592.870826	56.118283	292.013701	569.960556	55.348851	174.966593	423.296293	427.273449	192.009738	441.860801	343.427716	199.135259	416.242902	258.861776	202.768311	473.697243	343.962128	221.478587	660.186425	95.582016	243.978708	
1504	7.5200	483.634354	1571.895516	590.872572	452.073093	1595.975912	177.960789	387.234317	1620.103122	384.546517	550.685850	1560.784697	366.313335	484.805192	1313.310405	741.163864	614.960594	1086.591313	886.844837	422.177340	1300.510382	48.905460	544.950622	1061.436028	-129.680798	340.541715	1075.145842	392.922090	508.536879	1162.806163	174.977826	553.051125	1151.985279	566.078283	576.053135	1109.408124	204.227391	608.946257	1112.191981	520.347542	362.219359	1130.144021	447.510396	348.802391	1126.879773	344.887140	506.516027	960.990771	588.264739	442.080307	991.874043	173.780517	516.575420	833.587146	585.311791	536.898836	750.649178	559.860862	513.083518	668.702253	541.565720	570.761515	753.563815	547.407935	508.779067	563.123834	516.352772	503.313348	545.704959	396.642331	463.250414	413.840075	538.735654	478.303900	327.519298	524.816579	448.449538	244.922175	524.685749	504.485280	327.221276	495.751042	431.525594	108.641909	513.420787	463.365923	122.712942	425.914749	386.758431	80.283856	459.294844	667.372488	91.359908	518.978910	590.798088	54.182084	573.907594	609.835252	58.603118	458.474674	471.535513	858.965958	153.737903	491.069942	776.901788	168.496842	527.450574	775.622943	174.184670	465.157081	692.269919	182.829238	460.378321	550.330568	212.865171	474.437676	540.306464	338.983466	405.818782	117.406054	223.473918	436.718565	133.609736	297.659955	369.140341	68.576985	259.912766	592.866465	56.119350	292.008964	569.962959	55.361388	174.960467	423.296039	427.280122	192.015215	441.860393	343.448075	199.139930	416.238128	258.851437	202.772611	473.688886	343.961769	221.464124	660.200445	95.612487	243.992195	
1505	7.5250	483.626175	1571.885857	590.887446	452.071216	1595.963562	177.957393	387.253585	1620.092794	384.568822	550.670176	1560.782199	366.307586	484.790707	1313.310189	741.151112	614.942733	1086.584505	886.841599	422.178973	1300.484416	48.927233	544.966662	1061.390241	-129.631234	340.490876	1075.195965	392.952349	508.537211	1162.815235	174.966529	553.021003	1151.993906	566.099736	576.032084	1109.422860	204.230612	608.935169	1112.187750	520.361154	362.219360	1130.144022	447.510396	348.775407	1126.859833	344.882810	506.514499	960.991244	588.276097	442.061205	991.871653	173.802807	516.545340	833.590827	585.332750	536.891660	750.666137	559.884142	513.074637	668.682281	541.572070	570.753277	753.569670	547.408989	508.748317	563.107239	516.369266	503.283150	545.695475	396.630736	463.247757	413.853790	538.747151	478.346207	327.520795	524.850839	448.472634	244.913467	524.681499	504.495548	327.219824	495.748898	431.498392	108.604119	513.430843	463.373885	122.720479	425.927528	386.754188	80.280976	459.303891	667.380052	91.360758	518.969249	590.768515	54.163854	573.893790	609.858564	58.617579	458.479828	471.524294	858.970293	153.757217	491.069941	776.901786	168.496841	527.438606	775.614155	174.213951	465.127902	692.276214	182.829204	460.369874	550.334057	212.866832	474.454568	540.287585	339.003016	405.820265	117.415983	223.472672	436.717304	133.605154	297.658950	369.124941	68.582526	259.906813	592.865187	56.123440	292.010928	569.947509	55.341251	174.975763	423.288603	427.265049	192.027421	441.842509	343.444407	199.147896	416.232390	258.862626	202.772029	473.674059	343.962911	221.480040	660.193744	95.579612	243.982605	
